<svg width="1920" height="1080" viewBox="0 0 1920 1080" fill="none" xmlns="http://www.w3.org/2000/svg">
<path d="M1920 0H0V1080H1920V0Z" fill="#4600FF"/>
<path d="M1920 918C1849.2 881 1778.4 844 1696.9 832.6C1615.4 821.3 1523.2 835.5 1461 795C1398.8 754.5 1366.8 659.2 1340.2 579.8C1313.6 500.5 1292.5 437.2 1263.6 379C1234.6 320.8 1197.9 267.8 1153.1 205.5C1108.2 143.2 1055.1 71.6 1002 0H1920V918Z" fill="#6200FF"/>
<path d="M1920 688.5C1866.9 660.7 1813.8 633 1752.7 624.5C1691.5 615.9 1622.4 626.7 1575.8 596.3C1529.1 565.9 1505.1 494.4 1485.1 434.9C1465.2 375.4 1449.3 327.9 1427.7 284.3C1406 240.6 1378.5 200.9 1344.8 154.1C1311.1 107.4 1271.3 53.7 1231.5 0H1920V688.5Z" fill="#8B00FF"/>
<path d="M1920 459C1884.6 440.5 1849.2 422 1808.4 416.3C1767.7 410.6 1721.6 417.8 1690.5 397.5C1659.4 377.2 1643.4 329.6 1630.1 289.9C1616.8 250.2 1606.2 218.6 1591.8 189.5C1577.3 160.4 1559 133.9 1536.5 102.8C1514.1 71.6 1487.5 35.8 1461 0H1920V459Z" fill="#AB00FF"/>
<path d="M1920 229.5C1902.3 220.2 1884.6 211 1864.2 208.2C1843.8 205.3 1820.8 208.9 1805.3 198.8C1789.7 188.6 1781.7 164.8 1775 145C1768.4 125.1 1763.1 109.3 1755.9 94.8C1748.7 80.2 1739.5 67 1728.3 51.4C1717 35.8 1703.8 17.9 1690.5 0H1920V229.5Z" fill="#B900FF"/>
<path d="M0 162C78.8 189.4 157.6 216.7 219.7 259.9C281.8 303.1 327.2 362.1 401.5 384.6C475.8 407.1 578.9 393.1 649.1 430.9C719.3 468.7 756.7 558.3 755.2 644C753.7 729.7 713.4 811.3 734.1 883.3C754.8 955.3 836.4 1017.6 918 1080H0V162Z" fill="#6200FF"/>
<path d="M0 391.5C59.1 412 118.2 432.6 164.8 464.9C211.4 497.3 245.4 541.6 301.1 558.4C356.8 575.3 434.2 564.8 486.8 593.2C539.5 621.5 567.5 688.8 566.4 753C565.3 817.2 535.1 878.5 550.6 932.5C566.1 986.5 627.3 1033.2 688.5 1080H0V391.5Z" fill="#8B00FF"/>
<path d="M0 621C39.4 634.7 78.8 648.4 109.9 670C140.9 691.6 163.6 721 200.7 732.3C237.9 743.5 289.5 736.5 324.6 755.4C359.7 774.3 378.3 819.2 377.6 862C376.8 904.8 356.7 945.6 367.1 981.6C377.4 1017.6 418.2 1048.8 459 1080H0V621Z" fill="#AB00FF"/>
<path d="M0 850.5C19.7 857.3 39.4 864.2 54.9 875C70.5 885.8 81.8 900.5 100.4 906.1C118.9 911.8 144.7 908.3 162.3 917.7C179.8 927.2 189.2 949.6 188.8 971C188.4 992.4 178.4 1012.8 183.5 1030.8C188.7 1048.8 209.1 1064.4 229.5 1080H0V850.5Z" fill="#B900FF"/>
</svg>
