<svg id="visual" viewBox="0 0 900 600" width="900" height="600" xmlns="http://www.w3.org/2000/svg" xmlns:xlink="http://www.w3.org/1999/xlink" version="1.1"><rect x="0" y="0" width="900" height="600" fill="#001220"></rect><path d="M0 486L6.5 470.2C13 454.3 26 422.7 39 413.7C52 404.7 65 418.3 78 435.2C91 452 104 472 117.2 486C130.3 500 143.7 508 156.8 490.3C170 472.7 183 429.3 196 410.2C209 391 222 396 235 403.2C248 410.3 261 419.7 274 424.2C287 428.7 300 428.3 313 427.2C326 426 339 424 352 420.2C365 416.3 378 410.7 391 416.3C404 422 417 439 430.2 439C443.3 439 456.7 422 469.8 426.7C483 431.3 496 457.7 509 446.5C522 435.3 535 386.7 548 373.3C561 360 574 382 587 390C600 398 613 392 626 398C639 404 652 422 665 422.7C678 423.3 691 406.7 704 410.5C717 414.3 730 438.7 743.2 433.7C756.3 428.7 769.7 394.3 782.8 393.5C796 392.7 809 425.3 822 426.3C835 427.3 848 396.7 861 391.3C874 386 887 406 893.5 416L900 426L900 601L893.5 601C887 601 874 601 861 601C848 601 835 601 822 601C809 601 796 601 782.8 601C769.7 601 756.3 601 743.2 601C730 601 717 601 704 601C691 601 678 601 665 601C652 601 639 601 626 601C613 601 600 601 587 601C574 601 561 601 548 601C535 601 522 601 509 601C496 601 483 601 469.8 601C456.7 601 443.3 601 430.2 601C417 601 404 601 391 601C378 601 365 601 352 601C339 601 326 601 313 601C300 601 287 601 274 601C261 601 248 601 235 601C222 601 209 601 196 601C183 601 170 601 156.8 601C143.7 601 130.3 601 117.2 601C104 601 91 601 78 601C65 601 52 601 39 601C26 601 13 601 6.5 601L0 601Z" fill="#fa7268"></path><path d="M0 385L6.5 386C13 387 26 389 39 412C52 435 65 479 78 497.7C91 516.3 104 509.7 117.2 511.7C130.3 513.7 143.7 524.3 156.8 513.5C170 502.7 183 470.3 196 456.7C209 443 222 448 235 450.3C248 452.7 261 452.3 274 458.2C287 464 300 476 313 468.5C326 461 339 434 352 436.5C365 439 378 471 391 473.2C404 475.3 417 447.7 430.2 444C443.3 440.3 456.7 460.7 469.8 464.5C483 468.3 496 455.7 509 459.2C522 462.7 535 482.3 548 480.5C561 478.7 574 455.3 587 443.2C600 431 613 430 626 443.2C639 456.3 652 483.7 665 478.8C678 474 691 437 704 429.3C717 421.7 730 443.3 743.2 462C756.3 480.7 769.7 496.3 782.8 499.2C796 502 809 492 822 479.8C835 467.7 848 453.3 861 440.3C874 427.3 887 415.7 893.5 409.8L900 404L900 601L893.5 601C887 601 874 601 861 601C848 601 835 601 822 601C809 601 796 601 782.8 601C769.7 601 756.3 601 743.2 601C730 601 717 601 704 601C691 601 678 601 665 601C652 601 639 601 626 601C613 601 600 601 587 601C574 601 561 601 548 601C535 601 522 601 509 601C496 601 483 601 469.8 601C456.7 601 443.3 601 430.2 601C417 601 404 601 391 601C378 601 365 601 352 601C339 601 326 601 313 601C300 601 287 601 274 601C261 601 248 601 235 601C222 601 209 601 196 601C183 601 170 601 156.8 601C143.7 601 130.3 601 117.2 601C104 601 91 601 78 601C65 601 52 601 39 601C26 601 13 601 6.5 601L0 601Z" fill="#ef5f67"></path><path d="M0 505L6.5 499.3C13 493.7 26 482.3 39 480.5C52 478.7 65 486.3 78 497.5C91 508.7 104 523.3 117.2 530C130.3 536.7 143.7 535.3 156.8 530C170 524.7 183 515.3 196 507.5C209 499.7 222 493.3 235 497.5C248 501.7 261 516.3 274 513.3C287 510.3 300 489.7 313 488.5C326 487.3 339 505.7 352 498.7C365 491.7 378 459.3 391 452.3C404 445.3 417 463.7 430.2 476.5C443.3 489.3 456.7 496.7 469.8 499.7C483 502.7 496 501.3 509 498C522 494.7 535 489.3 548 498C561 506.7 574 529.3 587 537.3C600 545.3 613 538.7 626 534C639 529.3 652 526.7 665 513.5C678 500.3 691 476.7 704 480.2C717 483.7 730 514.3 743.2 512C756.3 509.7 769.7 474.3 782.8 461.7C796 449 809 459 822 470.3C835 481.7 848 494.3 861 496.2C874 498 887 489 893.5 484.5L900 480L900 601L893.5 601C887 601 874 601 861 601C848 601 835 601 822 601C809 601 796 601 782.8 601C769.7 601 756.3 601 743.2 601C730 601 717 601 704 601C691 601 678 601 665 601C652 601 639 601 626 601C613 601 600 601 587 601C574 601 561 601 548 601C535 601 522 601 509 601C496 601 483 601 469.8 601C456.7 601 443.3 601 430.2 601C417 601 404 601 391 601C378 601 365 601 352 601C339 601 326 601 313 601C300 601 287 601 274 601C261 601 248 601 235 601C222 601 209 601 196 601C183 601 170 601 156.8 601C143.7 601 130.3 601 117.2 601C104 601 91 601 78 601C65 601 52 601 39 601C26 601 13 601 6.5 601L0 601Z" fill="#e34c67"></path><path d="M0 514L6.5 508.7C13 503.3 26 492.7 39 498.7C52 504.7 65 527.3 78 538.5C91 549.7 104 549.3 117.2 549.8C130.3 550.3 143.7 551.7 156.8 548.3C170 545 183 537 196 530.7C209 524.3 222 519.7 235 515.5C248 511.3 261 507.7 274 513.8C287 520 300 536 313 532.2C326 528.3 339 504.7 352 493.7C365 482.7 378 484.3 391 492C404 499.7 417 513.3 430.2 512.8C443.3 512.3 456.7 497.7 469.8 503.8C483 510 496 537 509 544.5C522 552 535 540 548 530.5C561 521 574 514 587 507C600 500 613 493 626 500C639 507 652 528 665 528.2C678 528.3 691 507.7 704 506.8C717 506 730 525 743.2 532.5C756.3 540 769.7 536 782.8 528.8C796 521.7 809 511.3 822 503.3C835 495.3 848 489.7 861 495.8C874 502 887 520 893.5 529L900 538L900 601L893.5 601C887 601 874 601 861 601C848 601 835 601 822 601C809 601 796 601 782.8 601C769.7 601 756.3 601 743.2 601C730 601 717 601 704 601C691 601 678 601 665 601C652 601 639 601 626 601C613 601 600 601 587 601C574 601 561 601 548 601C535 601 522 601 509 601C496 601 483 601 469.8 601C456.7 601 443.3 601 430.2 601C417 601 404 601 391 601C378 601 365 601 352 601C339 601 326 601 313 601C300 601 287 601 274 601C261 601 248 601 235 601C222 601 209 601 196 601C183 601 170 601 156.8 601C143.7 601 130.3 601 117.2 601C104 601 91 601 78 601C65 601 52 601 39 601C26 601 13 601 6.5 601L0 601Z" fill="#d53867"></path><path d="M0 529L6.5 538C13 547 26 565 39 567.2C52 569.3 65 555.7 78 552.8C91 550 104 558 117.2 563.5C130.3 569 143.7 572 156.8 573C170 574 183 573 196 571.2C209 569.3 222 566.7 235 568.3C248 570 261 576 274 578C287 580 300 578 313 570.2C326 562.3 339 548.7 352 540.2C365 531.7 378 528.3 391 525C404 521.7 417 518.3 430.2 522.2C443.3 526 456.7 537 469.8 546.8C483 556.7 496 565.3 509 562.8C522 560.3 535 546.7 548 543.7C561 540.7 574 548.3 587 556.3C600 564.3 613 572.7 626 566.3C639 560 652 539 665 532C678 525 691 532 704 537.3C717 542.7 730 546.3 743.2 546.5C756.3 546.7 769.7 543.3 782.8 546.3C796 549.3 809 558.7 822 562C835 565.3 848 562.7 861 559.2C874 555.7 887 551.3 893.5 549.2L900 547L900 601L893.5 601C887 601 874 601 861 601C848 601 835 601 822 601C809 601 796 601 782.8 601C769.7 601 756.3 601 743.2 601C730 601 717 601 704 601C691 601 678 601 665 601C652 601 639 601 626 601C613 601 600 601 587 601C574 601 561 601 548 601C535 601 522 601 509 601C496 601 483 601 469.8 601C456.7 601 443.3 601 430.2 601C417 601 404 601 391 601C378 601 365 601 352 601C339 601 326 601 313 601C300 601 287 601 274 601C261 601 248 601 235 601C222 601 209 601 196 601C183 601 170 601 156.8 601C143.7 601 130.3 601 117.2 601C104 601 91 601 78 601C65 601 52 601 39 601C26 601 13 601 6.5 601L0 601Z" fill="#c62368"></path></svg>